<svg xmlns="http://www.w3.org/2000/svg" viewBox="0 0 64 64">
  <rect width="64" height="64" rx="14" fill="#131416"/>
  <path d="M17 26h29v13a12 12 0 0 1-12 12h-5a12 12 0 0 1-12-12V26Z" fill="#f5f5f8"/>
  <path d="M46 31h3a8 8 0 0 1 0 16h-7" fill="none" stroke="#f5f5f8" stroke-width="5" stroke-linecap="round"/>
  <path d="M14 54h39" fill="none" stroke="#94bce3" stroke-width="4" stroke-linecap="round"/>
  <path d="M21 26h25" fill="none" stroke="#94bce3" stroke-width="4" stroke-linecap="round"/>
  <path d="M25 20c-4-5 4-6 0-11M34 20c-4-5 4-6 0-11M43 20c-4-5 4-6 0-11" fill="none" stroke="#94bce3" stroke-width="3" stroke-linecap="round"/>
</svg>
